{
    "asset" : {
        "generator" : "Khronos glTF Blender I/O v1.6.16",
        "version" : "2.0"
    },
    "scene" : 0,
    "scenes" : [
        {
            "name" : "Scene",
            "nodes" : [
                0,
                1,
                2,
                3,
                4,
                5,
                6,
                7,
                8,
                9,
                10,
                11,
                12
            ]
        }
    ],
    "nodes" : [
        {
            "mesh" : 0,
            "name" : "Cube"
        },
        {
            "mesh" : 1,
            "name" : "Cube.001"
        },
        {
            "mesh" : 2,
            "name" : "Icosphere"
        },
        {
            "mesh" : 3,
            "name" : "Icosphere.001"
        },
        {
            "mesh" : 4,
            "name" : "Cube.003"
        },
        {
            "mesh" : 5,
            "name" : "Cube.002"
        },
        {
            "mesh" : 6,
            "name" : "Cube.004"
        },
        {
            "mesh" : 7,
            "name" : "Cube.005"
        },
        {
            "mesh" : 8,
            "name" : "Cube.006"
        },
        {
            "mesh" : 9,
            "name" : "Cube.007"
        },
        {
            "mesh" : 10,
            "name" : "Cube.008"
        },
        {
            "mesh" : 11,
            "name" : "Cube.009"
        },
        {
            "mesh" : 12,
            "name" : "Cube.010"
        }
    ],
    "materials" : [
        {
            "doubleSided" : true,
            "name" : "body",
            "pbrMetallicRoughness" : {
                "baseColorTexture" : {
                    "index" : 0
                },
                "metallicFactor" : 0,
                "roughnessFactor" : 0.5
            }
        },
        {
            "doubleSided" : true,
            "name" : "appendeges",
            "pbrMetallicRoughness" : {
                "baseColorTexture" : {
                    "index" : 1
                },
                "metallicFactor" : 0,
                "roughnessFactor" : 0.5
            }
        },
        {
            "doubleSided" : true,
            "name" : "eyes",
            "pbrMetallicRoughness" : {
                "baseColorTexture" : {
                    "index" : 2
                },
                "metallicFactor" : 0,
                "roughnessFactor" : 0.5
            }
        }
    ],
    "meshes" : [
        {
            "name" : "Cube",
            "primitives" : [
                {
                    "attributes" : {
                        "POSITION" : 0,
                        "NORMAL" : 1,
                        "TEXCOORD_0" : 2
                    },
                    "indices" : 3,
                    "material" : 0
                }
            ]
        },
        {
            "name" : "Cube.002",
            "primitives" : [
                {
                    "attributes" : {
                        "POSITION" : 4,
                        "NORMAL" : 5,
                        "TEXCOORD_0" : 6
                    },
                    "indices" : 7,
                    "material" : 1
                }
            ]
        },
        {
            "name" : "Icosphere",
            "primitives" : [
                {
                    "attributes" : {
                        "POSITION" : 8,
                        "NORMAL" : 9,
                        "TEXCOORD_0" : 10
                    },
                    "indices" : 11,
                    "material" : 2
                }
            ]
        },
        {
            "name" : "Icosphere.001",
            "primitives" : [
                {
                    "attributes" : {
                        "POSITION" : 12,
                        "NORMAL" : 13,
                        "TEXCOORD_0" : 14
                    },
                    "indices" : 11,
                    "material" : 2
                }
            ]
        },
        {
            "name" : "Cube.004",
            "primitives" : [
                {
                    "attributes" : {
                        "POSITION" : 15,
                        "NORMAL" : 16,
                        "TEXCOORD_0" : 17
                    },
                    "indices" : 18,
                    "material" : 1
                }
            ]
        },
        {
            "name" : "Cube.005",
            "primitives" : [
                {
                    "attributes" : {
                        "POSITION" : 19,
                        "NORMAL" : 20,
                        "TEXCOORD_0" : 21
                    },
                    "indices" : 7,
                    "material" : 1
                }
            ]
        },
        {
            "name" : "Cube.006",
            "primitives" : [
                {
                    "attributes" : {
                        "POSITION" : 22,
                        "NORMAL" : 23,
                        "TEXCOORD_0" : 24
                    },
                    "indices" : 25,
                    "material" : 1
                }
            ]
        },
        {
            "name" : "Cube.007",
            "primitives" : [
                {
                    "attributes" : {
                        "POSITION" : 26,
                        "NORMAL" : 27,
                        "TEXCOORD_0" : 28
                    },
                    "indices" : 29,
                    "material" : 1
                }
            ]
        },
        {
            "name" : "Cube.008",
            "primitives" : [
                {
                    "attributes" : {
                        "POSITION" : 30,
                        "NORMAL" : 31,
                        "TEXCOORD_0" : 32
                    },
                    "indices" : 29,
                    "material" : 1
                }
            ]
        },
        {
            "name" : "Cube.009",
            "primitives" : [
                {
                    "attributes" : {
                        "POSITION" : 33,
                        "NORMAL" : 34,
                        "TEXCOORD_0" : 35
                    },
                    "indices" : 29,
                    "material" : 1
                }
            ]
        },
        {
            "name" : "Cube.010",
            "primitives" : [
                {
                    "attributes" : {
                        "POSITION" : 36,
                        "NORMAL" : 37,
                        "TEXCOORD_0" : 38
                    },
                    "indices" : 29,
                    "material" : 1
                }
            ]
        },
        {
            "name" : "Cube.011",
            "primitives" : [
                {
                    "attributes" : {
                        "POSITION" : 39,
                        "NORMAL" : 40,
                        "TEXCOORD_0" : 41
                    },
                    "indices" : 29,
                    "material" : 1
                }
            ]
        },
        {
            "name" : "Cube.012",
            "primitives" : [
                {
                    "attributes" : {
                        "POSITION" : 42,
                        "NORMAL" : 43,
                        "TEXCOORD_0" : 44
                    },
                    "indices" : 29,
                    "material" : 1
                }
            ]
        }
    ],
    "textures" : [
        {
            "sampler" : 0,
            "source" : 0
        },
        {
            "sampler" : 0,
            "source" : 1
        },
        {
            "sampler" : 0,
            "source" : 2
        }
    ],
    "images" : [
        {
            "mimeType" : "image/png",
            "name" : "baseColorBody",
            "uri" : "textures/baseColorBody.png"
        },
        {
            "mimeType" : "image/png",
            "name" : "baseColorArms",
            "uri" : "textures/baseColorArms.png"
        },
        {
            "mimeType" : "image/png",
            "name" : "baseColorEyes",
            "uri" : "textures/baseColorEyes.png"
        }
    ],
    "accessors" : [
        {
            "bufferView" : 0,
            "componentType" : 5126,
            "count" : 168,
            "max" : [
                0.1678798347711563,
                2.519927978515625,
                0.5057214498519897
            ],
            "min" : [
                -0.17391671240329742,
                1.306544303894043,
                -0.3376433849334717
            ],
            "type" : "VEC3"
        },
        {
            "bufferView" : 1,
            "componentType" : 5126,
            "count" : 168,
            "type" : "VEC3"
        },
        {
            "bufferView" : 2,
            "componentType" : 5126,
            "count" : 168,
            "type" : "VEC2"
        },
        {
            "bufferView" : 3,
            "componentType" : 5123,
            "count" : 252,
            "type" : "SCALAR"
        },
        {
            "bufferView" : 4,
            "componentType" : 5126,
            "count" : 88,
            "max" : [
                0.05378904566168785,
                3.00616455078125,
                -0.04832261800765991
            ],
            "min" : [
                0.032270435243844986,
                2.2040233612060547,
                -0.6180389523506165
            ],
            "type" : "VEC3"
        },
        {
            "bufferView" : 5,
            "componentType" : 5126,
            "count" : 88,
            "type" : "VEC3"
        },
        {
            "bufferView" : 6,
            "componentType" : 5126,
            "count" : 88,
            "type" : "VEC2"
        },
        {
            "bufferView" : 7,
            "componentType" : 5123,
            "count" : 132,
            "type" : "SCALAR"
        },
        {
            "bufferView" : 8,
            "componentType" : 5126,
            "count" : 60,
            "max" : [
                0.196457639336586,
                2.499386787414551,
                -0.26989972591400146
            ],
            "min" : [
                0.0782775729894638,
                2.3672571182250977,
                -0.3822944760322571
            ],
            "type" : "VEC3"
        },
        {
            "bufferView" : 9,
            "componentType" : 5126,
            "count" : 60,
            "type" : "VEC3"
        },
        {
            "bufferView" : 10,
            "componentType" : 5126,
            "count" : 60,
            "type" : "VEC2"
        },
        {
            "bufferView" : 11,
            "componentType" : 5123,
            "count" : 60,
            "type" : "SCALAR"
        },
        {
            "bufferView" : 12,
            "componentType" : 5126,
            "count" : 60,
            "max" : [
                -0.09081567823886871,
                2.499386787414551,
                -0.26989972591400146
            ],
            "min" : [
                -0.2089957445859909,
                2.3672571182250977,
                -0.3822944760322571
            ],
            "type" : "VEC3"
        },
        {
            "bufferView" : 13,
            "componentType" : 5126,
            "count" : 60,
            "type" : "VEC3"
        },
        {
            "bufferView" : 14,
            "componentType" : 5126,
            "count" : 60,
            "type" : "VEC2"
        },
        {
            "bufferView" : 15,
            "componentType" : 5126,
            "count" : 88,
            "max" : [
                0.3845367729663849,
                2.306340456008911,
                -0.18919238448143005
            ],
            "min" : [
                0.01976713538169861,
                1.8255603313446045,
                -0.4815599024295807
            ],
            "type" : "VEC3"
        },
        {
            "bufferView" : 16,
            "componentType" : 5126,
            "count" : 88,
            "type" : "VEC3"
        },
        {
            "bufferView" : 17,
            "componentType" : 5126,
            "count" : 88,
            "type" : "VEC2"
        },
        {
            "bufferView" : 18,
            "componentType" : 5123,
            "count" : 132,
            "type" : "SCALAR"
        },
        {
            "bufferView" : 19,
            "componentType" : 5126,
            "count" : 88,
            "max" : [
                -0.05278876796364784,
                3.00616455078125,
                -0.04832261800765991
            ],
            "min" : [
                -0.074307382106781,
                2.2040233612060547,
                -0.6180389523506165
            ],
            "type" : "VEC3"
        },
        {
            "bufferView" : 20,
            "componentType" : 5126,
            "count" : 88,
            "type" : "VEC3"
        },
        {
            "bufferView" : 21,
            "componentType" : 5126,
            "count" : 88,
            "type" : "VEC2"
        },
        {
            "bufferView" : 22,
            "componentType" : 5126,
            "count" : 88,
            "max" : [
                -0.04808440059423447,
                2.313037395477295,
                -0.18919238448143005
            ],
            "min" : [
                -0.3788306415081024,
                1.8087533712387085,
                -0.4815599322319031
            ],
            "type" : "VEC3"
        },
        {
            "bufferView" : 23,
            "componentType" : 5126,
            "count" : 88,
            "type" : "VEC3"
        },
        {
            "bufferView" : 24,
            "componentType" : 5126,
            "count" : 88,
            "type" : "VEC2"
        },
        {
            "bufferView" : 25,
            "componentType" : 5123,
            "count" : 132,
            "type" : "SCALAR"
        },
        {
            "bufferView" : 26,
            "componentType" : 5126,
            "count" : 56,
            "max" : [
                0.07114139944314957,
                2.0943703651428223,
                0.30880042910575867
            ],
            "min" : [
                0.04655792564153671,
                1.756558895111084,
                -0.26339319348335266
            ],
            "type" : "VEC3"
        },
        {
            "bufferView" : 27,
            "componentType" : 5126,
            "count" : 56,
            "type" : "VEC3"
        },
        {
            "bufferView" : 28,
            "componentType" : 5126,
            "count" : 56,
            "type" : "VEC2"
        },
        {
            "bufferView" : 29,
            "componentType" : 5123,
            "count" : 84,
            "type" : "SCALAR"
        },
        {
            "bufferView" : 30,
            "componentType" : 5126,
            "count" : 56,
            "max" : [
                0.0681055337190628,
                1.9313534498214722,
                0.3265426754951477
            ],
            "min" : [
                0.049593791365623474,
                1.6769760847091675,
                -0.10432818531990051
            ],
            "type" : "VEC3"
        },
        {
            "bufferView" : 31,
            "componentType" : 5126,
            "count" : 56,
            "type" : "VEC3"
        },
        {
            "bufferView" : 32,
            "componentType" : 5126,
            "count" : 56,
            "type" : "VEC2"
        },
        {
            "bufferView" : 33,
            "componentType" : 5126,
            "count" : 56,
            "max" : [
                0.05842355266213417,
                1.7446885108947754,
                0.3872680366039276
            ],
            "min" : [
                0.04246961697936058,
                1.6230552196502686,
                -0.023634612560272217
            ],
            "type" : "VEC3"
        },
        {
            "bufferView" : 34,
            "componentType" : 5126,
            "count" : 56,
            "type" : "VEC3"
        },
        {
            "bufferView" : 35,
            "componentType" : 5126,
            "count" : 56,
            "type" : "VEC2"
        },
        {
            "bufferView" : 36,
            "componentType" : 5126,
            "count" : 56,
            "max" : [
                -0.043799228966236115,
                2.0943703651428223,
                0.30880042910575867
            ],
            "min" : [
                -0.06838270276784897,
                1.756558895111084,
                -0.26339319348335266
            ],
            "type" : "VEC3"
        },
        {
            "bufferView" : 37,
            "componentType" : 5126,
            "count" : 56,
            "type" : "VEC3"
        },
        {
            "bufferView" : 38,
            "componentType" : 5126,
            "count" : 56,
            "type" : "VEC2"
        },
        {
            "bufferView" : 39,
            "componentType" : 5126,
            "count" : 56,
            "max" : [
                -0.046835094690322876,
                1.9313534498214722,
                0.3265426754951477
            ],
            "min" : [
                -0.06534683704376221,
                1.6769760847091675,
                -0.10432818531990051
            ],
            "type" : "VEC3"
        },
        {
            "bufferView" : 40,
            "componentType" : 5126,
            "count" : 56,
            "type" : "VEC3"
        },
        {
            "bufferView" : 41,
            "componentType" : 5126,
            "count" : 56,
            "type" : "VEC2"
        },
        {
            "bufferView" : 42,
            "componentType" : 5126,
            "count" : 56,
            "max" : [
                -0.056517068296670914,
                1.7446885108947754,
                0.3872680366039276
            ],
            "min" : [
                -0.0724710077047348,
                1.6230552196502686,
                -0.023634612560272217
            ],
            "type" : "VEC3"
        },
        {
            "bufferView" : 43,
            "componentType" : 5126,
            "count" : 56,
            "type" : "VEC3"
        },
        {
            "bufferView" : 44,
            "componentType" : 5126,
            "count" : 56,
            "type" : "VEC2"
        }
    ],
    "bufferViews" : [
        {
            "buffer" : 0,
            "byteLength" : 2016,
            "byteOffset" : 0
        },
        {
            "buffer" : 0,
            "byteLength" : 2016,
            "byteOffset" : 2016
        },
        {
            "buffer" : 0,
            "byteLength" : 1344,
            "byteOffset" : 4032
        },
        {
            "buffer" : 0,
            "byteLength" : 504,
            "byteOffset" : 5376
        },
        {
            "buffer" : 0,
            "byteLength" : 1056,
            "byteOffset" : 5880
        },
        {
            "buffer" : 0,
            "byteLength" : 1056,
            "byteOffset" : 6936
        },
        {
            "buffer" : 0,
            "byteLength" : 704,
            "byteOffset" : 7992
        },
        {
            "buffer" : 0,
            "byteLength" : 264,
            "byteOffset" : 8696
        },
        {
            "buffer" : 0,
            "byteLength" : 720,
            "byteOffset" : 8960
        },
        {
            "buffer" : 0,
            "byteLength" : 720,
            "byteOffset" : 9680
        },
        {
            "buffer" : 0,
            "byteLength" : 480,
            "byteOffset" : 10400
        },
        {
            "buffer" : 0,
            "byteLength" : 120,
            "byteOffset" : 10880
        },
        {
            "buffer" : 0,
            "byteLength" : 720,
            "byteOffset" : 11000
        },
        {
            "buffer" : 0,
            "byteLength" : 720,
            "byteOffset" : 11720
        },
        {
            "buffer" : 0,
            "byteLength" : 480,
            "byteOffset" : 12440
        },
        {
            "buffer" : 0,
            "byteLength" : 1056,
            "byteOffset" : 12920
        },
        {
            "buffer" : 0,
            "byteLength" : 1056,
            "byteOffset" : 13976
        },
        {
            "buffer" : 0,
            "byteLength" : 704,
            "byteOffset" : 15032
        },
        {
            "buffer" : 0,
            "byteLength" : 264,
            "byteOffset" : 15736
        },
        {
            "buffer" : 0,
            "byteLength" : 1056,
            "byteOffset" : 16000
        },
        {
            "buffer" : 0,
            "byteLength" : 1056,
            "byteOffset" : 17056
        },
        {
            "buffer" : 0,
            "byteLength" : 704,
            "byteOffset" : 18112
        },
        {
            "buffer" : 0,
            "byteLength" : 1056,
            "byteOffset" : 18816
        },
        {
            "buffer" : 0,
            "byteLength" : 1056,
            "byteOffset" : 19872
        },
        {
            "buffer" : 0,
            "byteLength" : 704,
            "byteOffset" : 20928
        },
        {
            "buffer" : 0,
            "byteLength" : 264,
            "byteOffset" : 21632
        },
        {
            "buffer" : 0,
            "byteLength" : 672,
            "byteOffset" : 21896
        },
        {
            "buffer" : 0,
            "byteLength" : 672,
            "byteOffset" : 22568
        },
        {
            "buffer" : 0,
            "byteLength" : 448,
            "byteOffset" : 23240
        },
        {
            "buffer" : 0,
            "byteLength" : 168,
            "byteOffset" : 23688
        },
        {
            "buffer" : 0,
            "byteLength" : 672,
            "byteOffset" : 23856
        },
        {
            "buffer" : 0,
            "byteLength" : 672,
            "byteOffset" : 24528
        },
        {
            "buffer" : 0,
            "byteLength" : 448,
            "byteOffset" : 25200
        },
        {
            "buffer" : 0,
            "byteLength" : 672,
            "byteOffset" : 25648
        },
        {
            "buffer" : 0,
            "byteLength" : 672,
            "byteOffset" : 26320
        },
        {
            "buffer" : 0,
            "byteLength" : 448,
            "byteOffset" : 26992
        },
        {
            "buffer" : 0,
            "byteLength" : 672,
            "byteOffset" : 27440
        },
        {
            "buffer" : 0,
            "byteLength" : 672,
            "byteOffset" : 28112
        },
        {
            "buffer" : 0,
            "byteLength" : 448,
            "byteOffset" : 28784
        },
        {
            "buffer" : 0,
            "byteLength" : 672,
            "byteOffset" : 29232
        },
        {
            "buffer" : 0,
            "byteLength" : 672,
            "byteOffset" : 29904
        },
        {
            "buffer" : 0,
            "byteLength" : 448,
            "byteOffset" : 30576
        },
        {
            "buffer" : 0,
            "byteLength" : 672,
            "byteOffset" : 31024
        },
        {
            "buffer" : 0,
            "byteLength" : 672,
            "byteOffset" : 31696
        },
        {
            "buffer" : 0,
            "byteLength" : 448,
            "byteOffset" : 32368
        }
    ],
    "samplers" : [
        {
            "magFilter" : 9729,
            "minFilter" : 9987
        }
    ],
    "buffers" : [
        {
            "byteLength" : 32816,
            "uri" : "goal.bin"
        }
    ]
}
